<?xml version="1.0" standalone="no"?>
<!DOCTYPE svg PUBLIC "-//W3C//DTD SVG 20010904//EN"
 "http://www.w3.org/TR/2001/REC-SVG-20010904/DTD/svg10.dtd">
<svg version="1.0" xmlns="http://www.w3.org/2000/svg"
 width="247.000000pt" height="247.000000pt" viewBox="0 0 247.000000 247.000000"
 preserveAspectRatio="xMidYMid meet">
<metadata>
Created by potrace 1.14, written by Peter Selinger 2001-2017
</metadata>
<g transform="translate(0.000000,247.000000) scale(0.100000,-0.100000)"
fill="#000000" stroke="none">
<path d="M30 1240 l0 -100 70 0 c63 0 70 2 70 19 0 17 -8 20 -47 23 l-48 3 0
78 c1 74 0 77 -22 77 -22 0 -23 -2 -23 -100z"/>
<path d="M207 1317 c-22 -17 -30 -34 -34 -69 -5 -42 -3 -50 25 -78 81 -80 205
12 156 115 -27 57 -98 72 -147 32z m99 -42 c17 -27 12 -73 -9 -87 -26 -17 -57
-8 -70 20 -16 32 -11 61 12 79 25 19 49 15 67 -12z"/>
<path d="M397 1333 c-3 -5 -5 -50 -6 -100 l-2 -93 25 0 c22 0 26 5 26 29 0 43
24 46 46 5 14 -26 25 -34 46 -34 l27 0 -20 35 c-19 32 -19 36 -5 57 22 32 20
55 -9 83 -19 20 -34 25 -74 25 -27 0 -52 -3 -54 -7z m98 -43 c12 -20 -5 -46
-30 -46 -21 0 -25 5 -25 28 0 23 4 28 24 28 14 0 28 -5 31 -10z"/>
<path d="M580 1240 l0 -100 70 0 c63 0 70 2 70 20 0 17 -7 20 -45 20 -25 0
-45 5 -45 10 0 6 0 13 0 18 -1 4 16 9 36 12 25 3 38 11 40 23 2 13 -5 17 -35
17 -42 0 -52 6 -44 26 3 9 21 14 49 14 37 0 44 3 44 20 0 18 -7 20 -70 20
l-70 0 0 -100z"/>
<path d="M750 1239 c0 -98 0 -100 23 -97 20 3 22 9 22 55 -1 58 -1 58 24 12
25 -46 37 -46 61 0 11 23 21 41 23 41 1 0 2 -25 1 -55 0 -51 1 -55 23 -55 23
0 23 2 23 100 l0 100 -25 0 c-21 0 -30 -9 -49 -50 l-24 -51 -19 33 c-10 18
-22 41 -26 51 -4 10 -17 17 -32 17 l-25 0 0 -101z"/>
<path d="M990 1240 c0 -97 1 -100 23 -100 22 0 22 3 22 100 0 97 0 100 -22
100 -22 0 -23 -3 -23 -100z"/>
<path d="M1071 1240 c0 -100 0 -100 24 -100 22 0 25 4 25 36 0 22 4 33 11 29
14 -9 55 2 73 21 22 22 20 70 -4 94 -15 15 -33 20 -75 20 l-54 0 0 -100z m99
45 c15 -18 4 -33 -28 -40 -19 -3 -22 1 -22 26 0 22 5 29 19 29 10 0 24 -7 31
-15z"/>
<path d="M1260 1318 c-40 -43 -18 -86 53 -103 36 -9 36 -35 -1 -35 -15 0 -34
6 -41 13 -10 10 -15 8 -27 -8 -13 -17 -12 -20 8 -32 33 -18 103 -16 122 3 9 8
16 29 16 44 0 32 -24 53 -72 64 -16 4 -28 11 -28 17 0 16 30 22 54 11 18 -8
25 -6 34 8 9 14 6 19 -14 29 -39 18 -81 13 -104 -11z"/>
<path d="M1417 1290 c0 -27 2 -61 2 -75 1 -39 43 -75 86 -75 42 0 84 36 86 72
5 129 5 128 -18 128 -24 0 -28 -14 -24 -82 2 -40 -16 -78 -36 -78 -43 1 -48
14 -52 138 -1 16 -7 22 -23 22 -21 0 -23 -4 -21 -50z"/>
<path d="M1630 1240 c0 -98 0 -100 23 -100 22 0 24 4 22 55 -1 30 0 55 2 55 1
0 12 -18 23 -40 11 -22 25 -40 30 -40 5 0 19 18 30 40 11 22 22 40 23 40 2 0
3 -25 2 -55 0 -51 1 -55 22 -55 22 0 23 3 23 100 l0 100 -25 0 c-21 0 -30 -9
-50 -51 l-23 -51 -26 51 c-21 41 -31 51 -51 51 -25 0 -25 0 -25 -100z"/>
<path d="M1938 1333 c-4 -7 -3 -147 1 -180 0 -7 10 -13 21 -13 21 0 22 4 23
73 0 20 1 37 2 37 2 0 22 -25 45 -55 25 -32 50 -55 61 -55 17 0 19 9 19 100 0
93 -1 100 -20 100 -11 0 -21 -6 -21 -12 -2 -11 -3 -30 -8 -88 -1 -9 -7 -6 -18
10 -10 14 -28 36 -40 50 -13 14 -23 28 -23 32 0 10 -38 10 -42 1z"/>
<path d="M2150 1240 l0 -100 70 0 c63 0 70 2 70 20 0 17 -7 20 -44 20 -28 0
-46 5 -49 14 -8 20 1 26 39 26 18 0 34 6 37 14 8 20 -1 26 -39 26 -18 0 -34 6
-37 14 -8 21 2 26 49 26 37 0 43 3 41 20 -1 18 -8 20 -69 20 l-68 0 0 -100z"/>
<path d="M2300 1320 c0 -16 7 -20 30 -20 33 0 35 -7 30 -117 -1 -40 0 -43 24
-43 26 0 26 1 26 80 l0 80 30 0 c23 0 30 4 30 20 0 18 -7 20 -85 20 -78 0 -85
-2 -85 -20z"/>
<path d="M1865 1168 c6 -27 11 -32 29 -25 20 8 9 42 -14 44 -14 1 -18 -4 -15
-19z"/>
</g>
</svg>
